<svg width="500" height="500" viewBox="0 0 500 500" fill="none" xmlns="http://www.w3.org/2000/svg">
<path d="M483.135 250.148C483.135 121.479 378.751 17.1616 250 17.1616C121.249 17.1616 16.8652 121.479 16.8652 250.148C16.8652 378.818 121.249 483.135 250 483.135C378.751 483.135 483.135 378.818 483.135 250.148Z" stroke="#85D970" stroke-width="32" stroke-miterlimit="10"/>
<path d="M462.479 156.214C444.478 156.326 446.249 189.516 423.821 173.856C415.493 168.054 410.371 159.619 399.913 157.054C390.778 154.814 381.419 157.144 372.397 158.701C362.141 160.471 349.98 161.266 342.201 169.028C334.68 176.5 330.701 186.525 322.698 194.041C307.22 208.603 300.685 224.497 310.705 245.085C320.345 264.878 340.509 275.62 362.264 274.209C383.639 272.786 405.842 260.397 405.226 291.436C405.002 302.413 407.3 310.03 410.673 320.235C413.8 329.644 413.587 338.762 414.305 348.473C415.627 366.619 418.968 386.961 427.979 402.99L444.792 379.288C446.865 376.353 451.203 372.242 452.234 368.781C454.061 362.654 450.463 352.125 450.048 345.258C449.634 338.392 449.835 331.436 448.782 324.569C447.302 314.948 441.608 305.931 440.824 296.421C439.378 278.711 442.617 264.575 428.965 249.767C415.784 235.486 396.461 232.058 378.001 234.959C368.698 236.415 331.25 242.397 346.281 221.148C349.251 216.97 354.441 213.542 357.781 209.566C360.684 206.105 363.206 199.742 366.613 197.043C370.02 194.343 385.667 191.241 390.151 192.618C394.634 193.996 399.308 200.459 403.197 203.327C410.383 208.736 418.769 212.332 427.643 213.811C442.953 216.051 474.965 207.158 474.718 187.533C474.673 178.124 465.931 165.018 462.479 156.214ZM285.251 317.692C279.277 292.556 245.103 284.155 226.676 270.523C216.084 262.682 206.658 250.574 192.748 249.588C186.337 249.129 180.968 250.518 174.613 248.871C168.785 247.37 164.212 244.234 158.002 245.052C146.401 246.575 139.082 258.964 126.619 257.283C114.794 255.693 102.61 241.87 99.9201 230.613C96.4679 216.141 107.923 211.448 120.196 210.16C125.318 209.622 131.068 209.039 135.989 210.91C142.467 213.318 145.527 219.658 151.344 222.862C162.25 228.832 164.458 219.289 162.788 209.611C160.289 195.116 157.374 189.202 170.309 179.233C179.276 172.355 186.942 167.382 185.508 155.027C184.656 147.768 180.677 144.486 184.387 137.262C187.2 131.762 194.923 126.8 199.955 123.518C212.946 115.049 255.605 115.677 238.176 91.9747C233.054 85.0187 223.605 72.5853 214.638 70.8827C203.43 68.7656 198.453 81.2663 190.641 86.7773C182.571 92.4788 166.857 98.9531 158.775 90.1377C147.903 78.2755 165.982 74.3775 169.984 66.0997C173.985 57.822 160.715 42.1738 153.608 38.2085L120.196 75.6544C119.236 81.9256 119.57 88.3266 121.178 94.4639C122.786 100.601 125.633 106.345 129.544 111.342C136.191 119.888 146.771 122.633 147.253 134.304C147.724 145.506 145.975 151.241 138.645 159.115C135.473 162.476 133.232 167.247 130.003 170.395C126.047 174.237 127.515 173.061 121.339 174.114C109.727 176.074 99.8416 179.098 88.622 182.19C69.9264 187.354 68.2003 156.83 59.6819 144.856L31.6609 167.471C31.3583 171.179 36.2563 178.001 37.5901 182.033C45.2455 205.074 60.6907 222.895 70.6662 244.94C81.1684 268.283 109.369 261.809 121.821 282.262C132.873 300.408 121.07 323.382 129.342 342.38C135.35 356.168 149.517 359.181 159.291 369.263C169.278 379.445 169.065 393.379 170.589 406.63C172.308 422.216 175.098 437.666 178.939 452.869C180.296 458.122 181.54 465.067 185.138 469.402C187.604 472.382 196.066 474.947 192.647 475.933C197.422 476.717 205.929 481.175 209.908 477.904C215.154 473.603 213.753 460.363 214.661 454.381C217.384 436.571 226.306 419.153 238.344 405.824C250.236 392.673 266.533 383.768 276.576 368.859C286.361 354.32 289.309 334.707 285.251 317.692ZM247.826 347.174C241.101 359.17 226.127 367.202 216.499 376.734C213.887 379.321 208.328 388.282 205.055 386.345C202.712 384.956 201.917 373.329 201.054 370.663C196.601 357.238 188.101 345.52 176.72 337.115C173.212 334.46 164.514 331.01 162.508 327.37C160.266 323.416 162.284 314.085 162.362 309.784C162.485 303.511 159.627 293.083 161.174 287.381C162.967 280.806 159.515 284.771 165.4 283.472C168.504 282.777 181.327 285.029 185.194 285.835C191.336 287.112 194.721 290.932 199.563 294.796C212.296 305.001 226.317 312.898 240.586 320.716C251.637 326.832 254.888 334.572 247.826 347.174ZM169.816 38.5445C175.129 43.7307 180.127 49.869 188.052 50.3843C195.55 50.8884 202.623 46.8335 209.168 51.9301C216.432 57.5307 221.666 64.6211 231.305 66.3685C240.63 68.0599 250.505 62.6161 252.814 53.0838C255.056 43.9996 250.225 34.12 249.933 25.0022C249.933 23.7364 250.617 18.1134 249.743 17.1613C249.093 16.4444 243.668 17.2509 242.839 17.2733C236.764 17.4525 230.704 17.8707 224.659 18.5278C202.621 20.9116 181.038 26.4377 160.569 34.9377C163.292 36.8195 166.711 37.57 169.816 38.5445ZM362.533 101.473C372.049 101.473 381.711 97.2169 378.64 86.2172C376.062 76.9986 371.668 66.9958 360.975 71.9692C354.172 75.128 344.532 83.1705 343.737 91.1458C342.829 100.196 356.189 101.473 362.533 101.473ZM354.934 149.605C364.652 155.419 379.066 152.686 386.396 144.386C392.123 137.889 395.497 126.609 405.798 126.62C410.332 126.611 414.689 128.385 417.925 131.56C422.184 135.962 421.344 140.095 422.252 145.606C424.28 157.984 437.562 146.312 441.026 141.518C443.267 138.393 446.305 133.756 445.285 129.689C444.343 125.892 439.905 121.849 437.932 118.365C432.171 108.284 427.43 96.556 418.799 88.4127C410.494 80.5718 400.283 81.4791 392.404 89.6224C385.948 96.3432 378.449 101.664 374.033 109.841C370.917 115.587 367.409 118.331 361.098 119.821C357.624 120.639 353.656 120.941 350.742 123.271C342.627 129.656 347.245 144.99 354.934 149.605Z" fill="#85D970"/>
</svg>
