<svg width="500" height="500" viewBox="0 0 500 500" fill="none" xmlns="http://www.w3.org/2000/svg">
<path d="M500 250C500 388.071 388.071 500 250 500C111.929 500 0 388.071 0 250C0 111.929 111.929 0 250 0C388.071 0 500 111.929 500 250Z" fill="#E18700"/>
<path d="M241.072 89.2858C244.589 89.2858 248.072 88.593 251.322 87.2468C254.572 85.9007 257.525 83.9277 260.012 81.4404C262.499 78.9532 264.472 76.0003 265.818 72.7505C267.165 69.5007 267.857 66.0176 267.857 62.5001C267.857 58.9825 267.165 55.4994 265.818 52.2496C264.472 48.9998 262.499 46.047 260.012 43.5597C257.525 41.0724 254.572 39.0994 251.322 37.7533C248.072 36.4072 244.589 35.7144 241.072 35.7144C233.968 35.7144 227.155 38.5364 222.131 43.5597C217.108 48.583 214.286 55.3961 214.286 62.5001C214.286 69.6041 217.108 76.4171 222.131 81.4404C227.155 86.4637 233.968 89.2858 241.072 89.2858ZM133.929 250C150.505 250 166.402 243.415 178.123 231.694C189.844 219.973 196.429 204.076 196.429 187.5C196.429 170.924 189.844 155.027 178.123 143.306C166.402 131.585 150.505 125 133.929 125C117.353 125 101.456 131.585 89.7347 143.306C78.0137 155.027 71.4289 170.924 71.4289 187.5C71.4289 204.076 78.0137 219.973 89.7347 231.694C101.456 243.415 117.353 250 133.929 250ZM410.715 169.643C410.715 181.483 406.011 192.838 397.639 201.21C389.267 209.582 377.912 214.286 366.072 214.286C354.232 214.286 342.877 209.582 334.504 201.21C326.132 192.838 321.429 181.483 321.429 169.643C321.429 157.803 326.132 146.448 334.504 138.076C342.877 129.704 354.232 125 366.072 125C377.912 125 389.267 129.704 397.639 138.076C406.011 146.448 410.715 157.803 410.715 169.643ZM258.929 392.857C270.769 392.857 282.124 388.154 290.496 379.782C298.868 371.409 303.572 360.054 303.572 348.214C303.572 336.374 298.868 325.019 290.496 316.647C282.124 308.275 270.769 303.572 258.929 303.572C247.089 303.572 235.734 308.275 227.362 316.647C218.989 325.019 214.286 336.374 214.286 348.214C214.286 360.054 218.989 371.409 227.362 379.782C235.734 388.154 247.089 392.857 258.929 392.857ZM146.232 477.5C107.742 459.89 74.3309 432.831 49.1074 398.839C54.244 392.374 60.6109 386.99 67.8402 382.999C75.0696 379.009 83.0182 376.49 91.2266 375.589C99.435 374.688 107.741 375.423 115.663 377.751C123.586 380.079 130.969 383.954 137.386 389.152C143.802 394.349 149.125 400.767 153.047 408.034C156.968 415.301 159.411 423.273 160.234 431.49C161.056 439.707 160.242 448.005 157.839 455.905C155.436 463.806 151.491 471.151 146.232 477.518V477.5ZM408.607 443.268C440.598 416.995 465.586 383.21 481.34 344.929C468.301 338.954 453.604 337.646 439.715 341.224C425.826 344.802 413.59 353.047 405.06 364.578C396.53 376.108 392.226 390.221 392.868 404.549C393.511 418.877 399.062 432.548 408.59 443.268H408.607Z" fill="#F7C648"/>
</svg>
