<svg width="500" height="500" viewBox="0 0 500 500" fill="none" xmlns="http://www.w3.org/2000/svg">
<path d="M500 250C500 388.071 388.071 500 250 500C111.929 500 0 388.071 0 250C0 111.929 111.929 0 250 0C388.071 0 500 111.929 500 250Z" fill="#BFA36C"/>
<path d="M241.071 89.2858C244.589 89.2858 248.072 88.593 251.322 87.2468C254.571 85.9007 257.524 83.9277 260.012 81.4404C262.499 78.9532 264.472 76.0003 265.818 72.7505C267.164 69.5007 267.857 66.0176 267.857 62.5001C267.857 58.9825 267.164 55.4994 265.818 52.2496C264.472 48.9998 262.499 46.047 260.012 43.5597C257.524 41.0724 254.571 39.0994 251.322 37.7533C248.072 36.4072 244.589 35.7144 241.071 35.7144C233.967 35.7144 227.154 38.5364 222.131 43.5597C217.108 48.583 214.286 55.3961 214.286 62.5001C214.286 69.6041 217.108 76.4171 222.131 81.4404C227.154 86.4637 233.967 89.2858 241.071 89.2858ZM133.928 250C150.504 250 166.402 243.415 178.123 231.694C189.844 219.973 196.428 204.076 196.428 187.5C196.428 170.924 189.844 155.027 178.123 143.306C166.402 131.585 150.504 125 133.928 125C117.352 125 101.455 131.585 89.7342 143.306C78.0132 155.027 71.4284 170.924 71.4284 187.5C71.4284 204.076 78.0132 219.973 89.7342 231.694C101.455 243.415 117.352 250 133.928 250ZM410.714 169.643C410.714 181.483 406.011 192.838 397.638 201.21C389.266 209.582 377.911 214.286 366.071 214.286C354.231 214.286 342.876 209.582 334.504 201.21C326.132 192.838 321.428 181.483 321.428 169.643C321.428 157.803 326.132 146.448 334.504 138.076C342.876 129.704 354.231 125 366.071 125C377.911 125 389.266 129.704 397.638 138.076C406.011 146.448 410.714 157.803 410.714 169.643ZM258.928 392.857C270.768 392.857 282.123 388.154 290.496 379.782C298.868 371.409 303.571 360.054 303.571 348.214C303.571 336.374 298.868 325.019 290.496 316.647C282.123 308.275 270.768 303.572 258.928 303.572C247.088 303.572 235.733 308.275 227.361 316.647C218.989 325.019 214.286 336.374 214.286 348.214C214.286 360.054 218.989 371.409 227.361 379.782C235.733 388.154 247.088 392.857 258.928 392.857ZM146.232 477.5C107.742 459.89 74.3304 432.831 49.1069 398.839C54.2435 392.374 60.6104 386.99 67.8397 382.999C75.0691 379.009 83.0177 376.49 91.2261 375.589C99.4345 374.688 107.74 375.423 115.663 377.751C123.586 380.079 130.969 383.954 137.385 389.152C143.802 394.349 149.125 400.767 153.046 408.034C156.968 415.301 159.411 423.273 160.233 431.49C161.056 439.707 160.242 448.005 157.839 455.905C155.436 463.806 151.491 471.151 146.232 477.518V477.5ZM408.607 443.268C440.598 416.995 465.585 383.21 481.339 344.929C468.3 338.954 453.603 337.646 439.714 341.224C425.825 344.802 413.59 353.047 405.06 364.578C396.53 376.108 392.225 390.221 392.868 404.549C393.51 418.877 399.061 432.548 408.589 443.268H408.607Z" fill="#996B25"/>
</svg>
