<svg width="480" height="480" viewBox="0 0 480 480" fill="none" xmlns="http://www.w3.org/2000/svg">
<circle cx="240" cy="240" r="239" stroke="#BCBCBB" stroke-width="2"/>
<path d="M415 235C415 331.65 336.65 410 240 410C143.35 410 65 331.65 65 235C65 138.35 143.35 60 240 60C336.65 60 415 138.35 415 235Z" fill="#BCBCBB"/>
<path d="M233.75 122.5C236.212 122.5 238.65 122.015 240.925 121.073C243.2 120.13 245.267 118.749 247.008 117.008C248.749 115.267 250.13 113.2 251.073 110.925C252.015 108.65 252.5 106.212 252.5 103.75C252.5 101.288 252.015 98.8495 251.073 96.5747C250.13 94.2998 248.749 92.2328 247.008 90.4917C245.267 88.7506 243.2 87.3695 240.925 86.4273C238.65 85.485 236.212 85 233.75 85C228.777 85 224.008 86.9754 220.492 90.4917C216.975 94.0081 215 98.7772 215 103.75C215 108.723 216.975 113.492 220.492 117.008C224.008 120.525 228.777 122.5 233.75 122.5V122.5ZM158.75 235C170.353 235 181.481 230.391 189.686 222.186C197.891 213.981 202.5 202.853 202.5 191.25C202.5 179.647 197.891 168.519 189.686 160.314C181.481 152.109 170.353 147.5 158.75 147.5C147.147 147.5 136.019 152.109 127.814 160.314C119.609 168.519 115 179.647 115 191.25C115 202.853 119.609 213.981 127.814 222.186C136.019 230.391 147.147 235 158.75 235V235ZM352.5 178.75C352.5 187.038 349.208 194.987 343.347 200.847C337.487 206.708 329.538 210 321.25 210C312.962 210 305.013 206.708 299.153 200.847C293.292 194.987 290 187.038 290 178.75C290 170.462 293.292 162.513 299.153 156.653C305.013 150.792 312.962 147.5 321.25 147.5C329.538 147.5 337.487 150.792 343.347 156.653C349.208 162.513 352.5 170.462 352.5 178.75ZM246.25 335C254.538 335 262.487 331.708 268.347 325.847C274.208 319.987 277.5 312.038 277.5 303.75C277.5 295.462 274.208 287.513 268.347 281.653C262.487 275.792 254.538 272.5 246.25 272.5C237.962 272.5 230.013 275.792 224.153 281.653C218.292 287.513 215 295.462 215 303.75C215 312.038 218.292 319.987 224.153 325.847C230.013 331.708 237.962 335 246.25 335V335ZM167.363 394.25C140.419 381.923 117.031 362.981 99.375 339.187C102.971 334.661 107.427 330.893 112.488 328.099C117.549 325.306 123.113 323.543 128.858 322.912C134.604 322.282 140.418 322.796 145.964 324.426C151.51 326.055 156.678 328.767 161.17 332.406C165.661 336.045 169.387 340.537 172.132 345.624C174.878 350.711 176.588 356.291 177.163 362.043C177.739 367.795 177.17 373.603 175.487 379.134C173.805 384.664 171.044 389.806 167.363 394.262V394.25ZM351.025 370.287C373.419 351.897 390.91 328.247 401.937 301.45C392.81 297.268 382.522 296.352 372.8 298.857C363.078 301.361 354.513 307.133 348.542 315.204C342.571 323.275 339.558 333.154 340.008 343.184C340.457 353.214 344.343 362.783 351.013 370.287H351.025Z" fill="#898989"/>
</svg>
