<svg width="791" height="141" viewBox="0 0 791 141" fill="none" xmlns="http://www.w3.org/2000/svg">
<path d="M859.726 73.8044C860.702 73.0331 861.145 72.0543 860.958 71.0818C860.771 70.1093 859.969 69.2222 858.727 68.614C850.291 64.7881 840.709 62.0366 830.539 60.5194C814.745 58.0478 790.355 57.4916 763.767 68.4286C720.185 86.4098 684.3 69.3555 682.801 68.614C681.545 68.0959 680.02 67.8895 678.529 68.036C677.038 68.1824 675.692 68.671 674.758 69.4042C673.824 70.1374 673.372 71.0612 673.492 71.9914C673.612 72.9216 674.294 73.7896 675.404 74.4224C683.839 78.2483 693.421 80.9998 703.592 82.517C709.898 83.5057 716.378 84.0038 722.884 84C736.578 84 752.971 81.7755 770.364 74.6077C813.945 56.6266 849.83 73.6809 851.33 74.4224C852.578 75.0258 854.161 75.2995 855.734 75.1837C857.307 75.068 858.742 74.5721 859.726 73.8044Z" fill="white"/>
<path d="M682.568 73.2492C683.545 72.4779 683.987 71.4991 683.8 70.5266C683.613 69.5541 682.811 68.6669 681.569 68.0588C673.133 64.2329 663.551 61.4814 653.381 59.9642C637.587 57.4925 613.198 56.9364 586.609 67.8734C543.027 85.8546 507.142 68.8003 505.643 68.0588C504.387 67.5407 502.862 67.3343 501.371 67.4807C499.881 67.6272 498.534 68.1158 497.6 68.849C496.667 69.5821 496.214 70.506 496.334 71.4362C496.454 72.3663 497.136 73.2344 498.246 73.8671C506.682 77.6931 516.263 80.4446 526.434 81.9618C532.74 82.9504 539.221 83.4486 545.726 83.4447C559.42 83.4447 575.813 81.2203 593.206 74.0525C636.788 56.0713 672.673 73.1256 674.172 73.8671C675.42 74.4706 677.003 74.7443 678.576 74.6285C680.15 74.5127 681.585 74.0169 682.568 73.2492Z" fill="white"/>
<path d="M505.411 72.5687C506.387 71.7973 506.83 70.8185 506.642 69.846C506.455 68.8735 505.653 67.9864 504.411 67.3782C495.975 63.5523 486.394 60.8008 476.223 59.2836C460.43 56.812 436.04 56.2558 409.451 67.1928C365.869 85.174 329.984 68.1197 328.485 67.3782C327.23 66.8601 325.704 66.6537 324.214 66.8002C322.723 66.9466 321.376 67.4352 320.442 68.1684C319.509 68.9016 319.057 69.8254 319.176 70.7556C319.296 71.6858 319.979 72.5538 321.088 73.1866C329.524 77.0125 339.106 79.764 349.276 81.2812C355.582 82.2698 362.063 82.768 368.568 82.7642C382.262 82.7642 398.656 80.5397 416.048 73.3719C459.63 55.3908 495.515 72.4451 497.014 73.1866C498.262 73.79 499.845 74.0637 501.419 73.9479C502.992 73.8322 504.427 73.3363 505.411 72.5687Z" fill="white"/>
<path d="M327.253 71.7659C328.229 70.9946 328.672 70.0158 328.485 69.0433C328.298 68.0708 327.496 67.1836 326.254 66.5755C317.818 62.7496 308.236 59.9981 298.066 58.4809C282.272 56.0092 257.882 55.4531 231.294 66.3901C187.712 84.3713 151.827 67.317 150.328 66.5755C149.072 66.0574 147.547 65.851 146.056 65.9975C144.565 66.1439 143.219 66.6325 142.285 67.3657C141.351 68.0989 140.899 69.0227 141.019 69.9529C141.139 70.8831 141.821 71.7511 142.931 72.3839C151.367 76.2098 160.948 78.9613 171.119 80.4785C177.425 81.4671 183.905 81.9653 190.411 81.9615C204.105 81.9615 220.498 79.737 237.891 72.5692C281.473 54.5881 317.357 71.6424 318.857 72.3839C320.105 72.9873 321.688 73.261 323.261 73.1452C324.834 73.0295 326.27 72.5336 327.253 71.7659Z" fill="white"/>
<path d="M82.5216 54.3588C80.4592 53.6714 78.4214 53.0576 76.4081 52.5174C74.3948 51.9773 72.3078 51.5108 70.1472 51.1179L73.4618 46.1829L85.8362 46.1829L82.5216 54.3588ZM26.7633 69.6058C30.2988 66.2667 34.9755 63.6033 40.7935 61.6155C46.6133 59.6258 52.7151 58.6309 59.0987 58.6309C63.2235 58.6309 67.2746 58.9992 71.2521 59.7358C75.2296 60.4724 78.6423 61.479 81.4904 62.7557L81.4167 79.4759C78.5687 80.7526 75.1559 81.7592 71.1784 82.4958C67.2009 83.2324 63.1498 83.6007 59.025 83.6007C52.6414 83.6007 46.5524 82.6186 40.7581 80.6544C34.9638 78.6902 30.2988 76.0385 26.7633 72.6994C26.5669 72.503 26.4068 72.2703 26.283 72.0012C26.1613 71.7301 26.1004 71.4473 26.1004 71.1526C26.1004 70.858 26.1613 70.5752 26.283 70.3041C26.4068 70.035 26.5669 69.8023 26.7633 69.6058ZM60.6455 71.079C60.6455 68.8202 59.8225 66.8678 58.1765 65.2218C56.5325 63.5777 54.5811 62.7557 52.3222 62.7557C50.0634 62.7557 48.0992 63.5905 46.4297 65.2601C44.7601 66.9296 43.9254 68.8938 43.9253 71.1526C43.9253 73.4114 44.7474 75.3629 46.3914 77.0069C48.0374 78.6529 49.9898 79.4759 52.2486 79.4759C54.5074 79.4759 56.4716 78.6411 58.1411 76.9715C59.8107 75.302 60.6455 73.3378 60.6455 71.079ZM82.4479 87.8728L85.8362 96.1223L73.4618 96.1223L70.1472 91.1873C72.3078 90.7945 74.382 90.3152 76.3698 89.7495C78.3595 89.1858 80.3855 88.5602 82.4479 87.8728ZM17.2615 74.3935C22.2702 80.1879 28.4201 84.57 35.7111 87.5398C43.0041 90.5116 51.3156 91.9975 60.6455 91.9975L66.4644 100.763C67.25 101.941 68.2567 102.85 69.4843 103.488C70.7119 104.126 72.0132 104.446 73.3881 104.446L91.9497 104.446C93.4228 104.446 94.5886 103.844 95.4469 102.64C96.3072 101.437 96.4428 100.149 95.8535 98.774L89.8136 83.748V58.5573L95.8535 43.5313C96.4428 42.1563 96.32 40.8551 95.4852 39.6275C94.6504 38.3998 93.4965 37.786 92.0233 37.786L73.4618 37.786C72.0869 37.786 70.7728 38.118 69.5197 38.7819C68.2685 39.4438 67.2501 40.364 66.4644 41.5425L60.6455 50.3077C51.3156 50.3077 43.0041 51.7936 35.7111 54.7654C28.4201 57.7353 22.2702 62.1174 17.2615 67.9117C16.9178 68.3537 16.635 68.8565 16.413 69.4202C16.193 69.9859 16.083 70.5634 16.083 71.1526C16.083 71.7419 16.194 72.3184 16.4159 72.8821C16.6359 73.4478 16.9178 73.9516 17.2615 74.3935ZM105.503 58.6309C102.065 58.6309 99.0944 59.8576 96.5901 62.3108C94.0857 64.768 92.8336 67.7153 92.8336 71.1526C92.8336 74.59 94.0857 77.5352 96.5901 79.9885C99.0944 82.4457 102.065 83.6743 105.503 83.6743C107.958 83.6743 111.063 82.6804 114.819 80.6927C118.576 78.703 123.328 75.5229 129.073 71.1526C123.328 66.7823 118.576 63.6023 114.819 61.6126C111.063 59.6248 107.958 58.6309 105.503 58.6309ZM105.429 66.9542C106.411 66.9542 107.799 67.3598 109.592 68.171C111.383 68.9802 113.04 69.9496 114.562 71.079C113.04 72.2084 111.395 73.1915 109.627 74.0282C107.86 74.861 106.485 75.2774 105.503 75.2774C104.324 75.2774 103.293 74.8846 102.409 74.0989C101.525 73.3132 101.083 72.3311 101.083 71.1526C101.083 69.9741 101.512 68.9793 102.371 68.168C103.231 67.3588 104.25 66.9542 105.429 66.9542Z" fill="white"/>
</svg>
