<svg width="791" height="142" viewBox="0 0 791 142" fill="none" xmlns="http://www.w3.org/2000/svg">
<path d="M707.478 54.3588C709.541 53.6714 711.579 53.0576 713.592 52.5174C715.605 51.9773 717.692 51.5108 719.853 51.1179L716.538 46.1829L704.164 46.1829L707.478 54.3588ZM763.237 69.6058C759.701 66.2667 755.024 63.6033 749.207 61.6155C743.387 59.6258 737.285 58.6309 730.901 58.6309C726.777 58.6309 722.725 58.9992 718.748 59.7358C714.77 60.4724 711.358 61.479 708.51 62.7557L708.583 79.4759C711.431 80.7526 714.844 81.7592 718.822 82.4958C722.799 83.2324 726.85 83.6007 730.975 83.6007C737.359 83.6007 743.448 82.6186 749.242 80.6544C755.036 78.6902 759.701 76.0385 763.237 72.6994C763.433 72.503 763.593 72.2703 763.717 72.0012C763.839 71.7301 763.9 71.4473 763.9 71.1526C763.9 70.858 763.839 70.5752 763.717 70.3041C763.593 70.035 763.433 69.8023 763.237 69.6058V69.6058ZM729.355 71.079C729.355 68.8202 730.178 66.8678 731.824 65.2218C733.468 63.5777 735.419 62.7557 737.678 62.7557C739.937 62.7557 741.901 63.5905 743.57 65.2601C745.24 66.9296 746.075 68.8938 746.075 71.1526C746.075 73.4114 745.253 75.3629 743.609 77.0069C741.963 78.6529 740.01 79.4759 737.751 79.4759C735.493 79.4759 733.528 78.6411 731.859 76.9715C730.189 75.302 729.355 73.3378 729.355 71.079ZM707.552 87.8728L704.164 96.1223L716.538 96.1223L719.853 91.1873C717.692 90.7945 715.618 90.3152 713.63 89.7495C711.641 89.1858 709.614 88.5602 707.552 87.8728ZM772.738 74.3935C767.73 80.1879 761.58 84.57 754.289 87.5398C746.996 90.5116 738.684 91.9975 729.355 91.9975L723.536 100.763C722.75 101.941 721.743 102.85 720.516 103.488C719.288 104.126 717.987 104.446 716.612 104.446L698.05 104.446C696.577 104.446 695.411 103.844 694.553 102.64C693.693 101.437 693.557 100.149 694.146 98.774L700.186 83.748V58.5573L694.146 43.5313C693.557 42.1563 693.68 40.8551 694.515 39.6275C695.35 38.3998 696.504 37.786 697.977 37.786L716.538 37.786C717.913 37.786 719.227 38.118 720.48 38.7819C721.732 39.4438 722.75 40.364 723.536 41.5425L729.355 50.3077C738.684 50.3077 746.996 51.7936 754.289 54.7654C761.58 57.7353 767.73 62.1174 772.738 67.9117C773.082 68.3537 773.365 68.8565 773.587 69.4202C773.807 69.9859 773.917 70.5634 773.917 71.1526C773.917 71.7419 773.806 72.3184 773.584 72.8821C773.364 73.4478 773.082 73.9516 772.738 74.3935V74.3935ZM684.497 58.6309C687.935 58.6309 690.906 59.8576 693.41 62.3108C695.914 64.768 697.166 67.7153 697.166 71.1526C697.166 74.59 695.914 77.5352 693.41 79.9885C690.906 82.4457 687.935 83.6743 684.497 83.6743C682.042 83.6743 678.937 82.6804 675.181 80.6927C671.424 78.703 666.672 75.5229 660.927 71.1526C666.672 66.7823 671.424 63.6023 675.181 61.6126C678.937 59.6248 682.042 58.6309 684.497 58.6309V58.6309ZM684.571 66.9542C683.589 66.9542 682.201 67.3598 680.408 68.171C678.617 68.9802 676.96 69.9496 675.438 71.079C676.96 72.2084 678.605 73.1915 680.373 74.0282C682.14 74.861 683.515 75.2774 684.497 75.2774C685.676 75.2774 686.707 74.8846 687.591 74.0989C688.475 73.3132 688.917 72.3311 688.917 71.1526C688.917 69.9741 688.488 68.9793 687.629 68.168C686.769 67.3588 685.75 66.9542 684.571 66.9542V66.9542Z" fill="white"/>
<path d="M-69.7263 73.8044C-70.7024 73.0331 -71.1452 72.0543 -70.9579 71.0818C-70.7706 70.1093 -69.9685 69.2222 -68.7267 68.614C-60.2909 64.7881 -50.7093 62.0366 -40.5385 60.5194C-24.7451 58.0478 -0.355388 57.4916 26.2334 68.4286C69.8151 86.4098 105.7 69.3555 107.199 68.614C108.455 68.0959 109.98 67.8895 111.471 68.036C112.962 68.1824 114.308 68.671 115.242 69.4042C116.176 70.1374 116.628 71.0612 116.508 71.9914C116.388 72.9216 115.706 73.7896 114.596 74.4224C106.161 78.2483 96.5789 80.9998 86.4082 82.517C80.1024 83.5057 73.6217 84.0038 67.1163 84C53.422 84 37.0289 81.7755 19.6362 74.6077C-23.9455 56.6266 -59.8304 73.6809 -61.3298 74.4224C-62.5776 75.0258 -64.161 75.2995 -65.7341 75.1837C-67.3073 75.068 -68.7425 74.5721 -69.7263 73.8044Z" fill="white"/>
<path d="M107.432 73.2492C106.455 72.4779 106.013 71.4991 106.2 70.5266C106.387 69.5541 107.189 68.6669 108.431 68.0588C116.867 64.2329 126.449 61.4814 136.619 59.9642C152.413 57.4925 176.802 56.9364 203.391 67.8734C246.973 85.8546 282.858 68.8003 284.357 68.0588C285.613 67.5407 287.138 67.3343 288.629 67.4807C290.119 67.6272 291.466 68.1158 292.4 68.849C293.333 69.5821 293.786 70.506 293.666 71.4362C293.546 72.3663 292.864 73.2344 291.754 73.8671C283.318 77.6931 273.737 80.4446 263.566 81.9618C257.26 82.9504 250.779 83.4486 244.274 83.4447C230.58 83.4447 214.187 81.2203 196.794 74.0525C153.212 56.0713 117.327 73.1256 115.828 73.8671C114.58 74.4706 112.997 74.7443 111.424 74.6285C109.85 74.5127 108.415 74.0169 107.432 73.2492Z" fill="white"/>
<path d="M284.589 72.5687C283.613 71.7973 283.17 70.8185 283.358 69.846C283.545 68.8735 284.347 67.9864 285.589 67.3782C294.025 63.5523 303.606 60.8008 313.777 59.2836C329.57 56.812 353.96 56.2558 380.549 67.1928C424.131 85.174 460.016 68.1197 461.515 67.3782C462.77 66.8601 464.296 66.6537 465.786 66.8002C467.277 66.9466 468.624 67.4352 469.557 68.1684C470.491 68.9016 470.943 69.8254 470.824 70.7556C470.704 71.6858 470.021 72.5538 468.912 73.1866C460.476 77.0125 450.894 79.764 440.724 81.2812C434.418 82.2698 427.937 82.768 421.432 82.7642C407.738 82.7642 391.344 80.5397 373.952 73.3719C330.37 55.3908 294.485 72.4451 292.986 73.1866C291.738 73.79 290.155 74.0637 288.581 73.9479C287.008 73.8322 285.573 73.3363 284.589 72.5687Z" fill="white"/>
<path d="M462.747 71.7659C461.771 70.9946 461.328 70.0158 461.515 69.0433C461.702 68.0708 462.504 67.1836 463.746 66.5755C472.182 62.7496 481.764 59.9981 491.934 58.4809C507.728 56.0092 532.118 55.4531 558.706 66.3901C602.288 84.3713 638.173 67.317 639.672 66.5755C640.928 66.0574 642.453 65.851 643.944 65.9975C645.435 66.1439 646.781 66.6325 647.715 67.3657C648.649 68.0989 649.101 69.0227 648.981 69.9529C648.861 70.8831 648.179 71.7511 647.069 72.3839C638.633 76.2098 629.052 78.9613 618.881 80.4785C612.575 81.4671 606.095 81.9653 599.589 81.9615C585.895 81.9615 569.502 79.737 552.109 72.5692C508.527 54.5881 472.643 71.6424 471.143 72.3839C469.895 72.9873 468.312 73.261 466.739 73.1452C465.166 73.0295 463.73 72.5336 462.747 71.7659Z" fill="white"/>
</svg>
