<svg width="178" height="211" viewBox="0 0 178 211" fill="none" xmlns="http://www.w3.org/2000/svg">
<path d="M41.6872 186.807C43.8109 187.876 45.9532 187.878 48.1141 186.814C50.2731 185.755 51.7563 184.117 52.5639 181.898C53.2764 179.94 53.1885 177.948 52.3001 175.922C51.4098 173.901 49.968 172.381 47.9748 171.359C36.3241 165.198 27.7396 156.199 22.221 144.365C16.6992 132.523 15.3226 120.16 18.0912 107.274C18.5902 105.091 18.3832 103.02 17.4701 101.062C16.5569 99.1036 15.0563 97.7445 12.9681 96.9844C10.7494 96.1769 8.53797 96.2588 6.33393 97.2302C4.13509 98.2035 2.76241 99.8471 2.21588 102.161C-1.89479 119.14 -0.256168 135.551 7.13173 151.395C14.5196 167.238 26.0381 179.042 41.6872 186.807ZM52.3228 154.541C54.4345 156.048 56.7127 156.286 59.1574 155.255C61.6021 154.223 63.2995 152.402 64.2496 149.792C64.8671 148.095 64.8045 146.334 64.0617 144.509C63.3223 142.691 62.1578 141.123 60.5681 139.805C57.0327 137.336 54.3519 134.143 52.5257 130.227C50.6995 126.311 49.9769 122.205 50.3578 117.909C50.3703 115.845 49.9152 113.944 48.9926 112.207C48.077 110.467 46.7709 109.288 45.0742 108.67C42.464 107.72 39.978 107.85 37.6163 109.059C35.2546 110.269 33.9725 112.167 33.77 114.754C32.854 122.55 34.0752 130.053 37.4336 137.265C40.799 144.473 45.7621 150.231 52.3228 154.541ZM117.523 209.31C119.48 210.022 121.58 210.343 123.823 210.273C126.066 210.202 128.232 209.734 130.32 208.869L168.238 191.188C170.243 190.144 171.994 188.786 173.49 187.113C174.985 185.44 176.089 183.625 176.802 181.668C177.562 179.579 177.895 177.445 177.802 175.265C177.707 173.09 177.202 171.024 176.289 169.066L160.476 135.154C158.567 131.059 155.405 128.173 150.99 126.495C146.577 124.813 142.324 124.926 138.229 126.835L124.878 133.061L121.392 125.584L134.743 119.358C138.837 117.449 141.668 114.341 143.236 110.034C144.804 105.727 144.633 101.526 142.724 97.4321L135.626 82.2117C133.717 78.1174 130.575 75.274 126.2 73.6817C121.831 72.0913 117.599 72.2508 113.504 74.16L100.153 80.3857L96.6666 72.9091L110.018 66.6833C114.112 64.7741 116.955 61.6321 118.548 57.2573C120.138 52.8877 119.979 48.6558 118.07 44.5614L102.256 10.6494C101.26 8.51324 99.9256 6.69733 98.2529 5.20171C96.5802 3.70609 94.7651 2.60201 92.8073 1.88947C90.8497 1.17693 88.7834 0.868278 86.6085 0.963511C84.4285 1.05685 82.2704 1.60158 80.1342 2.5977L42.2168 20.2788C40.1282 21.1445 38.3797 22.3911 36.9714 24.0187C35.5665 25.6534 34.484 27.5149 33.7239 29.6031C33.0114 31.5608 32.6564 33.6486 32.6591 35.8666C32.667 38.0865 33.169 40.2646 34.1651 42.4008L49.9785 76.3128C51.8878 80.4071 55.0298 83.2504 59.4046 84.8427C63.7741 86.4331 68.0061 86.2737 72.1005 84.3645L85.4516 78.1387L88.9381 85.6154L75.5869 91.8411C71.4925 93.7504 68.6815 96.9012 67.1537 101.294C65.6293 105.693 65.8217 109.94 67.7309 114.034L74.7038 128.988C76.613 133.082 79.7524 135.924 84.122 137.515C88.4968 139.107 92.7314 138.949 96.8257 137.039L110.177 130.814L113.663 138.29L100.312 144.516C96.2178 146.425 93.3944 149.61 91.8419 154.07C90.2947 158.532 90.4757 162.811 92.3849 166.905L108.198 200.817C109.111 202.775 110.373 204.491 111.983 205.963C113.588 207.434 115.434 208.55 117.523 209.31ZM123.152 193.844L117.922 182.629L155.839 164.948L161.069 176.163L123.152 193.844ZM112.568 171.147L107.338 159.932L145.256 142.251L150.485 153.466L112.568 171.147ZM89.6571 122.015L82.6843 107.061L120.602 89.3803L127.574 104.334L89.6571 122.015ZM65.0031 69.1441L59.7735 57.9292L97.6908 40.248L102.92 51.463L65.0031 69.1441ZM54.4193 46.4471L49.1897 35.2322L87.107 17.551L92.3367 28.766L54.4193 46.4471Z" fill="#BCBCBB"/>
</svg>
